<svg xmlns="http://www.w3.org/2000/svg" width="249" height="87.345" viewBox="0 0 249 87.345"><g transform="translate(-129.267 -182.62)"><text transform="translate(129.267 261.965)" fill="#f6f7fb" font-size="36" font-family="Raleway-Bold, Raleway" font-weight="700"><tspan x="0" y="0">Fitness Center</tspan></text><g transform="translate(212.751 182.62)"><rect width="40.887" height="10.102" transform="translate(23.825 13.657)" fill="#fff"/><path d="M224.175,216.686h0a6.394,6.394,0,0,1-6.395-6.395V193.635a6.394,6.394,0,0,1,6.395-6.395h0a6.394,6.394,0,0,1,6.395,6.395v16.657A6.4,6.4,0,0,1,224.175,216.686Z" transform="translate(-217.78 -182.882)" fill="#ff6c2c"/><path d="M242.655,220.781h0a6.394,6.394,0,0,1-6.395-6.395V189.015a6.394,6.394,0,0,1,6.395-6.395h0a6.394,6.394,0,0,1,6.395,6.395v25.372A6.4,6.4,0,0,1,242.655,220.781Z" transform="translate(-218.83 -182.62)" fill="#ff1d6a"/><path d="M303.435,187.25h0a6.394,6.394,0,0,1,6.395,6.395V210.3a6.394,6.394,0,0,1-6.395,6.395h0a6.394,6.394,0,0,1-6.395-6.395V193.645A6.388,6.388,0,0,1,303.435,187.25Z" transform="translate(-222.283 -182.883)" fill="#ff6c2c"/><path d="M284.955,182.63h0a6.394,6.394,0,0,1,6.395,6.395V214.4a6.394,6.394,0,0,1-6.395,6.395h0a6.394,6.394,0,0,1-6.395-6.395V189.025A6.388,6.388,0,0,1,284.955,182.63Z" transform="translate(-221.233 -182.621)" fill="#ff1d6a"/></g></g></svg>