<?xml version="1.0" encoding="utf-8"?><svg viewBox="0 0 249 87.345" xmlns="http://www.w3.org/2000/svg" xmlns:xlink="http://www.w3.org/1999/xlink"><style>:root>svg{display:none}:root>svg:target{display:block}</style><svg viewBox="0 0 20 16" id="email" xmlns="http://www.w3.org/2000/svg"><path d="M18 0H2A2 2 0 00.01 2L0 14a2.006 2.006 0 002 2h16a2.006 2.006 0 002-2V2a2.006 2.006 0 00-2-2zm0 4l-8 5-8-5V2l8 5 8-5z" fill="#ff1d6a"/></svg><svg viewBox="0 0 8.602 16.472" id="facebook" xmlns="http://www.w3.org/2000/svg"><path d="M5.582 16.472v-7.5h2.562l.366-2.928H5.582V4.21c0-.824.275-1.464 1.464-1.464H8.6V.092C8.236.092 7.321 0 6.314 0a3.533 3.533 0 00-3.752 3.844v2.2H0v2.924h2.562v7.5z" fill="#fff" fill-rule="evenodd"/></svg><svg viewBox="0 0 11.093 20.711" id="facebook-f" xmlns="http://www.w3.org/2000/svg"><path d="M10.366 11.65l.575-3.75h-3.6V5.469a1.874 1.874 0 012.113-2.025h1.635V.253A19.939 19.939 0 008.19 0c-2.962 0-4.9 1.8-4.9 5.045V7.9H0v3.75h3.292v9.061h4.052V11.65z" fill="#ff1d6a"/></svg><svg viewBox="0 0 16.472 16.472" id="instagram" xmlns="http://www.w3.org/2000/svg"><path d="M8.236 1.464a25.254 25.254 0 013.294.092 4.244 4.244 0 011.556.275 3.214 3.214 0 011.556 1.556 4.244 4.244 0 01.275 1.556c0 .824.092 1.1.092 3.294a25.253 25.253 0 01-.092 3.294 4.244 4.244 0 01-.275 1.556 3.214 3.214 0 01-1.556 1.556 4.244 4.244 0 01-1.556.275c-.824 0-1.1.092-3.294.092a25.253 25.253 0 01-3.294-.092 4.244 4.244 0 01-1.556-.275 3.214 3.214 0 01-1.556-1.557 4.244 4.244 0 01-.275-1.556c0-.824-.092-1.1-.092-3.294a25.254 25.254 0 01.092-3.294 4.244 4.244 0 01.275-1.556 3.287 3.287 0 01.641-.915 1.547 1.547 0 01.915-.641 4.244 4.244 0 011.556-.275 25.254 25.254 0 013.294-.092m0-1.463A27.039 27.039 0 004.85.092a5.65 5.65 0 00-2.013.366 3.582 3.582 0 00-1.464.915 3.582 3.582 0 00-.915 1.464A4.17 4.17 0 00.092 4.85 27.039 27.039 0 000 8.236a27.039 27.039 0 00.092 3.386 5.65 5.65 0 00.366 2.013 3.582 3.582 0 00.915 1.465 3.582 3.582 0 001.464.915 5.65 5.65 0 002.013.366 27.04 27.04 0 003.386.092 27.04 27.04 0 003.386-.092 5.65 5.65 0 002.013-.366 3.839 3.839 0 002.379-2.379 5.65 5.65 0 00.366-2.013c0-.915.092-1.19.092-3.386a27.04 27.04 0 00-.092-3.386 5.65 5.65 0 00-.366-2.013 3.582 3.582 0 00-.914-1.465 3.582 3.582 0 00-1.465-.915 5.65 5.65 0 00-2.013-.366A27.039 27.039 0 008.236 0m0 4.027a4.142 4.142 0 00-4.21 4.21 4.21 4.21 0 104.21-4.21m0 6.955a2.7 2.7 0 01-2.745-2.746 2.7 2.7 0 012.745-2.745 2.7 2.7 0 012.745 2.745 2.7 2.7 0 01-2.745 2.745m4.393-8.145a1.007 1.007 0 101.007 1.007 1.016 1.016 0 00-1.007-1.007" fill="#fff" fill-rule="evenodd"/></svg><svg viewBox="0 0 20.711 20.71" id="linkedin-in" xmlns="http://www.w3.org/2000/svg"><path d="M4.636 20.71H.342V6.883h4.294zM2.487 4.997A2.5 2.5 0 114.973 2.49a2.508 2.508 0 01-2.486 2.507zM20.706 20.71h-4.284v-6.731c0-1.6-.032-3.661-2.232-3.661-2.232 0-2.575 1.743-2.575 3.546v6.846H7.326V6.883h4.118v1.886h.06a4.512 4.512 0 014.063-2.233c4.346 0 5.144 2.862 5.144 6.578v7.6z" fill="#ff1d6a"/></svg><svg viewBox="0 0 249 87.345" id="logo" xmlns="http://www.w3.org/2000/svg"><text transform="translate(0 79.345)" fill="#f6f7fb" font-size="36" font-family="Raleway-Bold, Raleway" font-weight="700"><tspan x="0" y="0">Fitness Center</tspan></text><path fill="#fff" d="M107.309 13.657h40.887v10.102h-40.887z"/><path d="M89.879 33.804a6.394 6.394 0 01-6.395-6.395V10.753a6.394 6.394 0 016.395-6.395 6.394 6.394 0 016.395 6.395V27.41a6.4 6.4 0 01-6.395 6.394z" fill="#ff6c2c"/><path d="M107.309 38.161a6.394 6.394 0 01-6.395-6.395V6.395A6.394 6.394 0 01107.309 0a6.394 6.394 0 016.395 6.395v25.372a6.4 6.4 0 01-6.395 6.394z" fill="#ff1d6a"/><path d="M164.636 4.367a6.394 6.394 0 016.395 6.395v16.655a6.394 6.394 0 01-6.395 6.395 6.394 6.394 0 01-6.395-6.395V10.762a6.388 6.388 0 016.395-6.395z" fill="#ff6c2c"/><path d="M147.206.009a6.394 6.394 0 016.395 6.395v25.375a6.394 6.394 0 01-6.395 6.395 6.394 6.394 0 01-6.395-6.395V6.404a6.388 6.388 0 016.395-6.395z" fill="#ff1d6a"/></svg><svg viewBox="0 0 18 18" id="phone" xmlns="http://www.w3.org/2000/svg"><path d="M3.62 7.79a15.149 15.149 0 006.59 6.59l2.2-2.2a.994.994 0 011.02-.24 11.407 11.407 0 003.57.57 1 1 0 011 1V17a1 1 0 01-1 1A17 17 0 010 1a1 1 0 011-1h3.5a1 1 0 011 1 11.36 11.36 0 00.57 3.57 1 1 0 01-.25 1.02z" fill="#ff1d6a"/></svg><svg viewBox="0 0 16 16" id="planet" xmlns="http://www.w3.org/2000/svg"><defs><clipPath id="ha"><path fill="none" d="M0 0h16v16H0z"/></clipPath></defs><g data-name="Symbol 5 – 1" clip-path="url(#ha)"><path data-name="Контур 4" d="M2.4 2.4A7.263 7.263 0 018 0a7.263 7.263 0 015.6 2.4A7.263 7.263 0 0116 8a7.263 7.263 0 01-2.4 5.6A7.263 7.263 0 018 16a7.263 7.263 0 01-5.6-2.4A7.984 7.984 0 010 8a7.263 7.263 0 012.4-5.6zm6.667 12a3.276 3.276 0 002-1.2A5.824 5.824 0 0012 10.4a2.208 2.208 0 00-.667-1.6A2.347 2.347 0 009.6 8H8.267a3.893 3.893 0 01-1.2-.267 1.21 1.21 0 01-.4-.933.693.693 0 01.267-.533A1.011 1.011 0 017.467 6a.91.91 0 01.667.4c.267.133.4.267.533.267a.8.8 0 00.533-.134A.8.8 0 009.333 6a2.122 2.122 0 00-.667-1.333 5.515 5.515 0 00.667-2.533.287.287 0 00-.267-.267A4.122 4.122 0 008 1.6a6.67 6.67 0 00-3.467 1.067 3.357 3.357 0 00-1.2 2.667A3.414 3.414 0 004.4 7.867a3.643 3.643 0 002.533 1.066v.533a1.712 1.712 0 00.534 1.334 1.942 1.942 0 001.2.8V14c0 .133 0 .133.133.267s.133.133.267.133z" fill="#ff6c2c"/></g></svg><svg viewBox="0 0 16 16" id="time" xmlns="http://www.w3.org/2000/svg"><defs><clipPath id="ia"><path fill="none" d="M0 0h16v16H0z"/></clipPath></defs><g data-name="Symbol 22 – 1" clip-path="url(#ia)"><path data-name="Контур 13" d="M2.4 2.4A7.263 7.263 0 018 0a7.263 7.263 0 015.6 2.4A7.263 7.263 0 0116 8a7.263 7.263 0 01-2.4 5.6A7.263 7.263 0 018 16a7.263 7.263 0 01-5.6-2.4A7.984 7.984 0 010 8a7.263 7.263 0 012.4-5.6zm9.2 9.2l.933-.933L9.2 7.333 8 2H6.667v6a1.21 1.21 0 00.4.933.466.466 0 00.267.133z" fill="#ff6c2c"/></g></svg><svg viewBox="0 0 16.472 13.361" id="twitter" xmlns="http://www.w3.org/2000/svg"><path d="M5.216 13.361a9.523 9.523 0 009.609-9.609v-.458a7.438 7.438 0 001.647-1.739 7.6 7.6 0 01-1.922.545A3.56 3.56 0 0016.014.27a8.394 8.394 0 01-2.1.824A3.268 3.268 0 0011.439 0a3.438 3.438 0 00-3.386 3.386 1.784 1.784 0 00.092.732A9.461 9.461 0 011.19.549a3.5 3.5 0 00-.458 1.739A3.636 3.636 0 002.2 5.125a3.085 3.085 0 01-1.556-.458 3.344 3.344 0 002.745 3.294 2.821 2.821 0 01-.915.092 1.557 1.557 0 01-.641-.092 3.467 3.467 0 003.2 2.379 6.909 6.909 0 01-4.21 1.464 2.534 2.534 0 01-.823-.09 8.638 8.638 0 005.216 1.647" fill="#fff" fill-rule="evenodd"/></svg><svg viewBox="0 0 25.5 20.71" id="twitter-t" xmlns="http://www.w3.org/2000/svg"><path d="M22.879 5.161c.016.227.016.453.016.68A14.768 14.768 0 018.025 20.71 14.769 14.769 0 010 18.364a10.812 10.812 0 001.262.065 10.466 10.466 0 006.488-2.233 5.235 5.235 0 01-4.886-3.624 6.59 6.59 0 00.987.081 5.528 5.528 0 001.375-.178 5.227 5.227 0 01-4.191-5.129v-.065a5.263 5.263 0 002.362.663A5.234 5.234 0 011.779.954a14.855 14.855 0 0010.776 5.469 5.9 5.9 0 01-.129-1.2 5.231 5.231 0 019.045-3.576A10.289 10.289 0 0024.788.385a5.212 5.212 0 01-2.3 2.88 10.477 10.477 0 003.009-.809 11.234 11.234 0 01-2.621 2.7z" fill="#ff1d6a"/></svg><svg viewBox="0 0 31.821 22.517" id="youtube" xmlns="http://www.w3.org/2000/svg"><path d="M31.798 7.756a23.757 23.757 0 00-.062-1.13c-.122-1.6-.3-3.422-1.354-4.7a5.163 5.163 0 00-3.624-1.49c-1.68-.19-3.367-.3-5.056-.368-3.42-.13-6.843-.055-10.263.021-1.758.039-3.515.078-5.267.217C4.02.477 1.807.793.806 2.943c-.9 1.93-.788 4.381-.8 6.456-.011 1.862-.016 3.725.058 5.585.1 2.415.24 5.56 2.847 6.618a15 15 0 004.557.788c1.574.1 3.154.09 4.731.113 3.309.049 6.616-.065 9.923-.13a22.483 22.483 0 006.852-.821c1.9-.647 2.392-2.7 2.65-4.488a36.937 36.937 0 00.187-5.356c-.003-1.313.033-2.635-.013-3.952z" fill="#ff1d6a"/><path d="M20.926 11.324l-8.24-4.839v9.682c2.752-1.619 5.47-3.216 8.24-4.843z" fill="#fff"/></svg></svg>